<?xml version="1.0" encoding="UTF-8" standalone="no"?>
<svg
   xmlns:dc="http://purl.org/dc/elements/1.1/"
   xmlns:cc="http://creativecommons.org/ns#"
   xmlns:rdf="http://www.w3.org/1999/02/22-rdf-syntax-ns#"
   xmlns:svg="http://www.w3.org/2000/svg"
   xmlns="http://www.w3.org/2000/svg"
   xmlns:sodipodi="http://sodipodi.sourceforge.net/DTD/sodipodi-0.dtd"
   xmlns:inkscape="http://www.inkscape.org/namespaces/inkscape"
   width="210mm"
   height="297mm"
   viewBox="0 0 210 297"
   version="1.1"
   id="svg936"
   inkscape:version="1.0.1 (c497b03c, 2020-09-10)"
   sodipodi:docname="ligera-logo-xx.svg">
  <defs
     id="defs930" />
  <sodipodi:namedview
     id="base"
     pagecolor="#ffffff"
     bordercolor="#666666"
     borderopacity="1.0"
     inkscape:pageopacity="0.0"
     inkscape:pageshadow="2"
     inkscape:zoom="2.6485893"
     inkscape:cx="311.24194"
     inkscape:cy="535.67386"
     inkscape:document-units="mm"
     inkscape:current-layer="layer1"
     inkscape:document-rotation="0"
     showgrid="false"
     inkscape:window-width="2560"
     inkscape:window-height="1395"
     inkscape:window-x="1440"
     inkscape:window-y="23"
     inkscape:window-maximized="0" />
  <metadata
     id="metadata933">
    <rdf:RDF>
      <cc:Work
         rdf:about="">
        <dc:format>image/svg+xml</dc:format>
        <dc:type
           rdf:resource="http://purl.org/dc/dcmitype/StillImage" />
        <dc:title></dc:title>
      </cc:Work>
    </rdf:RDF>
  </metadata>
  <g
     inkscape:label="Layer 1"
     inkscape:groupmode="layer"
     id="layer1">
    <path
       id="path1507"
       style="fill:#5a2ca0;stroke-width:34.8237;stroke-linejoin:round"
       inkscape:transform-center-x="0.0036974939"
       inkscape:transform-center-y="-2.3874139"
       d="M 293.7168 417.32227 L 289.01172 426.86914 L 313.23438 479.50781 C 315.40124 484.21657 320.59387 486.14344 325.30273 483.97656 L 341.45508 476.54492 L 321.55469 473.66211 L 293.7168 417.32227 z M 274.89062 455.51562 L 265.93164 473.68945 L 203.74805 482.75586 L 211.84375 490.63867 L 269.06445 483.90625 C 274.21244 483.30066 277.64868 478.95849 277.04297 473.81055 L 274.89062 455.51562 z M 293.69141 476.92578 C 292.70801 488.87985 283.34028 499.01649 271.01367 500.4668 L 263.43359 501.35938 C 273.00448 506.64688 278.57652 517.77052 276.33398 529.00391 L 274.68164 537.2793 C 282.64249 529.3427 295.3032 527.24157 305.54102 532.98438 L 313.45703 537.42383 C 308.63792 527.46932 310.62042 515.02655 319.12305 507.17773 L 325.67773 501.12695 C 314.54156 502.91839 303.00954 497.17388 298.08789 486.47852 L 293.69141 476.92578 z M 372.08398 480.98047 L 330.43164 519.42773 C 326.62281 522.94364 326.39618 528.47833 329.91211 532.28711 L 342.00977 545.39258 L 338.76953 526.55469 L 383.74805 482.66992 L 372.08398 480.98047 z M 232.7793 511.02539 L 248.76953 526.59766 L 238.17578 588.54102 L 248.5332 583.08984 L 259.98438 525.73828 C 260.9992 520.65512 257.92889 516.04598 252.8457 515.03125 L 232.7793 511.02539 z M 293.01953 546.29883 C 289.80485 546.21972 286.7395 547.89781 284.99609 551.00586 L 274.73242 569.29883 L 293.78516 559.27148 L 349.42188 588.48828 L 347.18164 575.45703 L 297.38477 547.52539 C 295.97201 546.73291 294.48075 546.33478 293.01953 546.29883 z "
       transform="scale(0.26458333)" />
  </g>
</svg>
