<svg xmlns="http://www.w3.org/2000/svg" width="170mm" height="60mm" viewBox="0 0 170 60"><g style="line-height:1.25;-inkscape-font-specification:Oswald"><path d="M55.259 8.841h8.48V50.79h-8.48zm17.702 7.862q-4.66 0-4.66-4.38 0-4.436 4.66-4.436 4.717 0 4.717 4.436 0 4.38-4.717 4.38zm-4.212 1.853h8.48V50.79h-8.48zm36.291 2.752h-1.966q-.45 0-1.235.112 1.067 1.797 1.067 4.493v4.83q0 4.155-2.584 6.457-2.583 2.303-7.805 2.415-1.46 0-1.46 1.235 0 .73.449 1.011.505.225 1.797.225h3.088q4.324 0 6.402 1.74 2.134 1.685 2.134 5.335v1.404q0 4.1-2.976 6.346-2.976 2.302-8.873 2.302H91q-3.594 0-6.345-.786-2.752-.73-4.1-1.684v-7.694q1.573 1.236 4.38 2.134 2.808.955 5.84.955h1.18q2.92 0 3.987-.45 1.123-.393 1.123-1.347v-.281q0-1.123-1.91-1.123H91.73q-4.043 0-6.064-1.18-2.022-1.179-2.022-3.818v-.899q0-3.537 3.145-4.099-5.784-1.91-5.784-8.199v-4.83q0-4.211 2.695-6.513 2.752-2.303 8.255-2.303 3.65 0 6.121 1.011 1.292-4.324 6.065-4.324h.898zm-10.558 9.378v-4.717q0-2.19-2.527-2.19t-2.527 2.19v4.717q0 2.19 2.527 2.19t2.527-2.19zm12.752 10.67V26.137q0-4.267 2.64-6.626 2.639-2.415 7.973-2.415 10.277 0 10.277 9.041v11.4h-12.747v3.145q0 1.685.898 2.415.955.673 4.1.673 3.2 0 6.963-1.123v7.413q-3.931 1.067-8.424 1.067-11.68 0-11.68-9.771zm8.143-10.277h4.941v-4.83q0-2.133-2.47-2.133-2.471 0-2.471 2.134zm30.978-13.589h.954v7.805h-1.291q-3.145 0-5.504 1.123V50.79h-8.48V17.658h7.975v2.246q2.864-1.74 3.987-2.078 1.18-.337 2.359-.337zm10.628 23.697v1.573q0 1.909 1.966 1.909 1.684 0 2.807-.618v-6.795l-2.583.674q-1.404.393-1.797 1.011-.393.618-.393 2.246zm-6.57-22.743q3.088-1.067 8.816-1.067 5.728 0 8.2 2.527 2.47 2.47 2.47 7.525v23.36h-7.918v-2.414q-1.629 2.527-5.672 2.527-4.043 0-5.84-1.909-1.797-1.966-1.797-6.233v-1.91q0-3.762 1.628-5.784 1.685-2.021 5.391-3.032l6.121-1.573v-3.088q-.056-1.46-.842-2.022-.786-.618-2.864-.618-4.66 0-7.693 1.18z" style="-inkscape-font-specification:'Khand Bold'" aria-label="ligera" font-size="56.156" font-family="Khand" font-weight="700" fill="#fff"/></g><path style="line-height:normal;font-variant-ligatures:normal;font-variant-position:normal;font-variant-caps:normal;font-variant-numeric:normal;font-variant-alternates:normal;font-variant-east-asian:normal;font-feature-settings:normal;font-variation-settings:normal;text-indent:0;text-align:start;text-decoration-line:none;text-decoration-style:solid;text-decoration-color:#000;text-transform:none;text-orientation:mixed;white-space:normal;shape-padding:0;shape-margin:0;inline-size:0;isolation:auto;mix-blend-mode:normal;solid-color:#000;solid-opacity:1" d="M37.212 32.392v11.405c0 1.371-1.034 2.409-2.406 2.409h-12.33v4.412h12.33c3.74 0 6.818-3.081 6.818-6.821V32.392zm-37.175 0v11.405c0 3.74 3.078 6.82 6.818 6.82h12.329v-4.411H6.854c-1.37 0-2.406-1.038-2.406-2.41V32.393zm22.44-23.365v4.415h12.33c1.37 0 2.405 1.034 2.405 2.406v13.251h4.412V15.848c0-3.74-3.078-6.82-6.818-6.82zm-15.622 0c-3.74 0-6.818 3.08-6.818 6.82V29.1h4.411V15.848c0-1.372 1.035-2.406 2.407-2.406h12.329V9.027z" color="#000" font-weight="400" font-family="sans-serif" overflow="visible" fill="#b3b3b3"/></svg>