<svg xmlns="http://www.w3.org/2000/svg" width="170mm" height="60mm" viewBox="0 0 170 60"><g aria-label="ligera" style="line-height:1.25;-inkscape-font-specification:Oswald" font-size="56.156" font-family="Oswald" stroke-width="1.404"><path d="M28.614 6.077L27.37 8.603l6.41 13.927c.572 1.246 1.946 1.756 3.192 1.182l4.274-1.966-5.265-.763zm-4.981 10.105l-2.37 4.809L4.81 23.389l2.142 2.086 15.14-1.781c1.362-.16 2.27-1.31 2.11-2.671zm4.974 5.665c-.26 3.163-2.738 5.845-6 6.228l-2.005.237c2.532 1.399 4.006 4.342 3.413 7.314l-.437 2.19c2.106-2.1 5.456-2.656 8.165-1.137l2.094 1.175c-1.275-2.634-.75-5.926 1.5-8.003l1.733-1.6c-2.946.473-5.997-1.047-7.3-3.877zM49.35 22.92L38.33 33.092c-1.009.93-1.068 2.395-.138 3.403l3.2 3.467-.857-4.984 11.9-11.611zm-36.86 7.95l4.23 4.12-2.802 16.388 2.74-1.442 3.03-15.174c.269-1.345-.544-2.565-1.889-2.833zm15.939 9.332c-.85-.021-1.662.423-2.123 1.245l-2.716 4.84 5.041-2.653 14.72 7.73-.592-3.447-13.175-7.39a2.48 2.48 0 00-1.155-.325z" fill="#5a2ca0"/><text style="line-height:1.25;-inkscape-font-specification:'Khand, Light';font-variant-ligatures:normal;font-variant-caps:normal;font-variant-numeric:normal;font-variant-east-asian:normal" x="58.949" y="46.523" font-weight="300" font-size="50.8" font-family="Khand" stroke-width=".371" fill="#5a2ca0"><tspan x="58.949" y="46.523" style="-inkscape-font-specification:'Khand, Light';font-variant-ligatures:normal;font-variant-caps:normal;font-variant-numeric:normal;font-variant-east-asian:normal">ligera</tspan></text><rect width="5.759" height="5.759" x="25.914" y="28.187" ry="1.645" fill="#fff"/><circle cx="37.279" cy="28.187" r="1.515" fill="#5a2ca0"/><circle cx="33.945" cy="37.885" r="1.515" fill="#5a2ca0"/><circle cx="23.64" cy="37.885" r="1.515" fill="#5a2ca0"/><circle cx="28.793" cy="22.125" r="1.515" fill="#5a2ca0"/><circle cx="20.61" cy="28.187" r="1.515" fill="#5a2ca0"/><circle cx="42.583" cy="49.402" r="2.576" fill="#5a2ca0"/><circle cx="14.851" cy="49.554" r="2.576" fill="#5a2ca0"/><circle cx="5.91" cy="24.095" r="2.576" fill="#5a2ca0"/><circle cx="27.884" cy="7.729" r="2.576" fill="#5a2ca0"/><circle cx="50.766" cy="23.337" r="2.576" fill="#5a2ca0"/></g></svg>