<svg xmlns="http://www.w3.org/2000/svg" width="210mm" height="297mm" viewBox="0 0 210 297"><path d="M77.713 110.417l-1.245 2.525 6.409 13.928c.573 1.246 1.947 1.755 3.193 1.182l4.273-1.966-5.265-.763-7.365-14.906zm-4.982 10.105l-2.37 4.808-16.453 2.4 2.142 2.085 15.14-1.781c1.362-.16 2.271-1.31 2.111-2.672l-.57-4.84zm4.975 5.665c-.26 3.162-2.739 5.844-6 6.228l-2.006.236c2.532 1.4 4.007 4.342 3.413 7.315l-.437 2.19c2.106-2.1 5.456-2.657 8.165-1.137l2.095 1.174c-1.276-2.633-.751-5.926 1.499-8.002l1.734-1.601c-2.947.474-5.998-1.046-7.3-3.876l-1.163-2.527zm20.741 1.072l-11.02 10.173c-1.008.93-1.068 2.395-.138 3.402l3.201 3.468-.857-4.984 11.9-11.612-3.086-.447zm-36.857 7.95l4.23 4.12-2.803 16.39 2.74-1.443 3.03-15.174c.269-1.345-.543-2.565-1.888-2.833l-5.31-1.06zm15.938 9.333c-.85-.021-1.662.423-2.123 1.245l-2.715 4.84 5.04-2.653 14.721 7.73-.593-3.448-13.175-7.39a2.48 2.48 0 00-1.155-.324z" fill="#5a2ca0"/></svg>