<svg xmlns="http://www.w3.org/2000/svg" width="170mm" height="60mm" viewBox="0 0 170 60"><g aria-label="ligera" style="line-height:1.25;-inkscape-font-specification:Oswald" font-size="56.156" font-family="Oswald" stroke-width="1.404" fill="#fff"><path d="M28.614 6.077L27.37 8.603l6.41 13.927c.572 1.246 1.946 1.756 3.192 1.182l4.274-1.966-5.265-.763zm-4.981 10.105l-2.37 4.809L4.81 23.389l2.142 2.086 15.14-1.781c1.362-.16 2.27-1.31 2.11-2.671zm4.974 5.665c-.26 3.163-2.738 5.845-6 6.228l-2.005.237c2.532 1.399 4.006 4.342 3.413 7.314l-.437 2.19c2.106-2.1 5.456-2.656 8.165-1.137l2.094 1.175c-1.275-2.634-.75-5.926 1.5-8.003l1.733-1.6c-2.946.473-5.997-1.047-7.3-3.877zM49.35 22.92L38.33 33.092c-1.009.93-1.068 2.395-.138 3.403l3.2 3.467-.857-4.984 11.9-11.611zm-36.86 7.95l4.23 4.12-2.802 16.388 2.74-1.442 3.03-15.174c.269-1.345-.544-2.565-1.889-2.833zm15.939 9.332c-.85-.021-1.662.423-2.123 1.245l-2.716 4.84 5.041-2.653 14.72 7.73-.592-3.447-13.175-7.39a2.48 2.48 0 00-1.155-.325z"/><rect width="5.759" height="5.759" x="25.914" y="28.187" ry="1.645"/><circle cx="37.279" cy="28.187" r="1.515"/><circle cx="33.945" cy="37.885" r="1.515"/><circle cx="23.64" cy="37.885" r="1.515"/><circle cx="28.793" cy="22.125" r="1.515"/><circle cx="20.61" cy="28.187" r="1.515"/><path d="M66.993 10.303h2.54v36.22h-2.54zm11.39 3.708q-1.676 0-1.676-1.88t1.676-1.88q1.677 0 1.677 1.88t-1.677 1.88zm-1.27 3.912h2.54v28.6h-2.54zm27.596.762h-1.677q-1.524 0-2.59.965 1.727 1.88 1.727 5.03v3.961q0 3.404-2.032 5.334-2.032 1.93-6.096 1.93-3.302 0-3.302 3.1 0 1.371.812 2.032.864.61 2.845.61h2.997q6.808 0 6.808 5.79v.508q0 6.147-8.84 6.147H93.28q-4.826 0-7.57-1.422v-2.54q3.1 1.676 7.57 1.676h2.032q6.35 0 6.35-3.81v-.559q0-1.778-.864-2.641-.813-.864-3.353-.864h-3.048q-2.845 0-4.42-1.117-1.574-1.118-1.574-3.2V38.8q0-1.27.711-2.082.711-.864 1.829-1.169-5.03-1.32-5.03-6.909v-3.96q0-3.404 2.033-5.334 2.032-1.93 5.74-1.93 3.76 0 5.893 1.473.914-2.794 4.369-2.794h.762zm-5.08 9.956V24.68q0-2.49-1.321-3.708-1.321-1.27-4.267-1.27-2.947 0-4.268 1.27-1.32 1.219-1.32 3.708v3.962q0 2.49 1.32 3.76 1.321 1.219 4.268 1.219 2.946 0 4.267-1.22 1.32-1.27 1.32-3.759zm9.619 10.821V25.238q0-3.505 1.93-5.639 1.982-2.184 5.995-2.184t5.943 2.184q1.982 2.134 1.982 5.639v8.483h-13.31v5.74q0 4.928 6.756 4.928 2.744 0 5.64-.863v2.49q-2.592.761-5.64.761-9.296 0-9.296-7.315zm2.54-8.027h10.77v-6.197q0-5.537-5.385-5.537t-5.385 5.537zm28.575-13.665h1.372v2.49h-1.83q-1.523 0-2.285.507l-1.016.61q-.254.152-.965.711-.712.56-1.118.813v23.622h-2.54v-28.6h2.49v2.235q.812-.559 1.218-.864.407-.355.864-.61.508-.304.813-.406.305-.101.813-.254.863-.254 2.184-.254zm5.867 20.625v1.575q0 2.337 1.067 3.454 1.117 1.067 3.708 1.067 3.708 0 6.35-2.337V31.791l-6.706 1.88q-2.489.762-3.454 1.828-.965 1.067-.965 2.896zm5.283-20.726q8.331 0 8.331 6.908v21.946h-2.49v-2.032q-.964.762-1.676 1.168-1.778 1.067-4.826 1.067-7.112 0-7.112-6.807v-1.626q0-5.029 6.096-6.756l7.519-2.134v-4.826q0-2.286-1.27-3.352-1.22-1.118-4.725-1.118-3.454 0-6.299 1.016v-2.54q2.845-.914 6.452-.914z" style="line-height:1.25;-inkscape-font-specification:'Khand, Light';font-variant-ligatures:normal;font-variant-caps:normal;font-variant-numeric:normal;font-variant-east-asian:normal" font-weight="300" font-size="50.8" font-family="Khand"/><circle cx="42.583" cy="49.402" r="2.576"/><circle cx="14.851" cy="49.554" r="2.576"/><circle cx="5.91" cy="24.095" r="2.576"/><circle cx="27.884" cy="7.729" r="2.576"/><circle cx="50.766" cy="23.337" r="2.576"/></g></svg>