<svg width="191" height="68" fill="none" xmlns="http://www.w3.org/2000/svg"><path d="M80.639 13.4l-.048 28.512c0 2.432 1.232 3.648 3.696 3.648h2.64l.24 1.392c-.352.128-.896.224-1.632.288-.704.064-1.28.096-1.728.096-1.536 0-2.768-.448-3.696-1.344-.928-.896-1.392-2.16-1.392-3.792V13.4h1.92zm12.881.816c.511 0 .767.256.767.768v2.88c0 .512-.256.768-.768.768h-.816c-.512 0-.768-.256-.768-.768v-2.88c0-.512.256-.768.768-.768h.816zm.527 9.648V47h-1.872V23.864h1.872zm17.451-.576c1.92 0 3.52.192 4.8.576h7.248l-.144 1.248-4.464.192a5.106 5.106 0 011.44 2.208c.288.864.432 1.872.432 3.024 0 2.432-.704 4.24-2.112 5.424-1.408 1.152-3.824 1.728-7.248 1.728-2.368 0-4.256-.288-5.664-.864-.608.704-.992 1.456-1.152 2.256-.128.8.032 1.52.48 2.16.48.608 1.36 1.024 2.64 1.248l9.12 1.536c2.08.384 3.472 1.056 4.176 2.016.704.96 1.056 2.368 1.056 4.224 0 2.528-.784 4.288-2.352 5.28-1.568.992-4.24 1.488-8.016 1.488-2.624 0-4.72-.208-6.288-.624-1.536-.416-2.656-1.12-3.36-2.112-.672-.992-1.008-2.32-1.008-3.984 0-1.6.224-2.88.672-3.84.48-.96 1.408-1.808 2.784-2.544l.672-.384c-1.056-.512-1.744-1.216-2.064-2.112a4.216 4.216 0 01-.048-2.736c.288-.96.832-1.76 1.632-2.4a5.312 5.312 0 01-2.064-2.304c-.416-.96-.624-2.112-.624-3.456 0-2.432.704-4.24 2.112-5.424 1.44-1.216 3.888-1.824 7.344-1.824zm-.048 1.584c-2.784 0-4.752.464-5.904 1.392-1.12.928-1.68 2.352-1.68 4.272 0 1.888.576 3.296 1.728 4.224 1.152.896 3.104 1.344 5.856 1.344 2.784 0 4.736-.448 5.856-1.344 1.12-.928 1.68-2.336 1.68-4.224 0-1.92-.56-3.344-1.68-4.272-1.088-.928-3.04-1.392-5.856-1.392zm-8.496 25.344c0 1.952.64 3.296 1.92 4.032 1.312.736 3.584 1.104 6.816 1.104 3.136 0 5.344-.384 6.624-1.152 1.28-.736 1.92-2.064 1.92-3.984 0-1.44-.272-2.496-.816-3.168-.512-.672-1.632-1.168-3.36-1.488l-9.216-1.536h-.096l-1.008.624c-1.12.704-1.872 1.456-2.256 2.256-.352.8-.528 1.904-.528 3.312zm34.895-26.928c3.136 0 5.456.576 6.96 1.728 1.536 1.12 2.32 2.816 2.352 5.088.032 2.048-.336 3.616-1.104 4.704-.768 1.056-2.096 1.584-3.984 1.584h-12.336c.096 2.4.448 4.288 1.056 5.664.64 1.376 1.584 2.352 2.832 2.928 1.28.576 2.896.864 4.848.864 1.472 0 2.912-.064 4.32-.192a98.303 98.303 0 003.6-.384l.24 1.344c-.576.192-1.36.352-2.352.48-.992.16-2.032.272-3.12.336a33.65 33.65 0 01-2.928.144c-3.744 0-6.432-.928-8.064-2.784-1.632-1.888-2.448-5.04-2.448-9.456 0-2.976.336-5.344 1.008-7.104.704-1.76 1.792-3.024 3.264-3.792 1.504-.768 3.456-1.152 5.856-1.152zm.096 1.728c-2.016 0-3.616.32-4.8.96-1.184.608-2.048 1.632-2.592 3.072-.512 1.408-.784 3.328-.816 5.76h12.048c1.312 0 2.224-.416 2.736-1.248.512-.832.736-1.952.672-3.36-.032-1.824-.64-3.136-1.824-3.936-1.184-.832-2.992-1.248-5.424-1.248zm17.917-1.152l.24 4.08c1.856-1.472 3.648-2.608 5.376-3.408 1.76-.832 3.488-1.248 5.184-1.248h.96l-.288 1.824h-.96c-1.6 0-3.184.384-4.752 1.152-1.536.736-3.312 1.76-5.328 3.072V47h-1.872V23.864h1.44zm27.777-.576c2.144 0 3.808.512 4.992 1.536 1.216 1.024 1.824 2.752 1.824 5.184V47h-1.44l-.336-4.32c-.64.672-1.536 1.376-2.688 2.112-1.12.704-2.384 1.312-3.792 1.824a13.16 13.16 0 01-4.272.72c-1.952 0-3.488-.512-4.608-1.536-1.12-1.056-1.68-2.544-1.68-4.464v-2.88c0-1.76.496-3.12 1.488-4.08 1.024-.96 2.448-1.44 4.272-1.44h11.136v-2.928c0-1.472-.368-2.672-1.104-3.6-.704-.928-2.048-1.392-4.032-1.392-1.6 0-3.344.08-5.232.24-1.856.128-3.648.288-5.376.48l-.192-1.44c1.536-.224 3.2-.448 4.992-.672 1.824-.224 3.84-.336 6.048-.336zm-5.52 22.272c1.088.032 2.256-.144 3.504-.528a19.037 19.037 0 003.744-1.584c1.216-.704 2.272-1.472 3.168-2.304v-6.672l-10.944.144c-2.656.064-3.984 1.392-3.984 3.984v2.592c0 2.88 1.504 4.336 4.512 4.368zM32.182 39.926a7.727 7.727 0 01-4.831-4.691v-9.704h.002a2.416 2.416 0 114.826 0h.003v14.395z" fill="#fff"/><path d="M27.352 34.904v2.92A7.017 7.017 0 0034.367 45h4.257v-.003a2.416 2.416 0 100-4.826v-.002h-3.796a7.94 7.94 0 01-7.476-5.265z" fill="#fff"/><circle cx="33.568" cy="34.218" r="23.252" transform="rotate(47.068 33.568 34.218)" stroke="url(#paint0_linear)"/><defs><linearGradient id="paint0_linear" x1="9.816" y1="10.466" x2="52.361" y2="10.466" gradientUnits="userSpaceOnUse"><stop stop-color="#fff"/><stop offset="1" stop-color="#fff" stop-opacity="0"/></linearGradient></defs></svg>