<svg width="195" height="68" viewBox="0 0 195 68" fill="none" xmlns="http://www.w3.org/2000/svg">
<g filter="url(#filter0_d)">
<path d="M80.6385 16.4L80.5905 44.912C80.5905 47.344 81.8225 48.56 84.2865 48.56H86.9265L87.1665 49.952C86.8145 50.08 86.2705 50.176 85.5345 50.24C84.8305 50.304 84.2545 50.336 83.8065 50.336C82.2705 50.336 81.0385 49.888 80.1105 48.992C79.1825 48.096 78.7185 46.832 78.7185 45.2V16.4H80.6385Z" fill="white"/>
<path d="M93.519 17.216C94.031 17.216 94.287 17.472 94.287 17.984V20.864C94.287 21.376 94.031 21.632 93.519 21.632H92.703C92.191 21.632 91.935 21.376 91.935 20.864V17.984C91.935 17.472 92.191 17.216 92.703 17.216H93.519ZM94.047 26.864V50H92.175V26.864H94.047Z" fill="white"/>
<path d="M111.498 26.288C113.418 26.288 115.018 26.48 116.298 26.864H123.546L123.402 28.112L118.938 28.304C119.61 28.912 120.09 29.648 120.378 30.512C120.666 31.376 120.81 32.384 120.81 33.536C120.81 35.968 120.106 37.776 118.698 38.96C117.29 40.112 114.874 40.688 111.45 40.688C109.082 40.688 107.194 40.4 105.786 39.824C105.178 40.528 104.794 41.28 104.634 42.08C104.506 42.88 104.666 43.6 105.114 44.24C105.594 44.848 106.474 45.264 107.754 45.488L116.874 47.024C118.954 47.408 120.346 48.08 121.05 49.04C121.754 50 122.106 51.408 122.106 53.264C122.106 55.792 121.322 57.552 119.754 58.544C118.186 59.536 115.514 60.032 111.738 60.032C109.114 60.032 107.018 59.824 105.45 59.408C103.914 58.992 102.794 58.288 102.09 57.296C101.418 56.304 101.082 54.976 101.082 53.312C101.082 51.712 101.306 50.432 101.754 49.472C102.234 48.512 103.162 47.664 104.538 46.928L105.21 46.544C104.154 46.032 103.466 45.328 103.146 44.432C102.826 43.536 102.81 42.624 103.098 41.696C103.386 40.736 103.93 39.936 104.73 39.296C103.802 38.72 103.114 37.952 102.666 36.992C102.25 36.032 102.042 34.88 102.042 33.536C102.042 31.104 102.746 29.296 104.154 28.112C105.594 26.896 108.042 26.288 111.498 26.288ZM111.45 27.872C108.666 27.872 106.698 28.336 105.546 29.264C104.426 30.192 103.866 31.616 103.866 33.536C103.866 35.424 104.442 36.832 105.594 37.76C106.746 38.656 108.698 39.104 111.45 39.104C114.234 39.104 116.186 38.656 117.306 37.76C118.426 36.832 118.986 35.424 118.986 33.536C118.986 31.616 118.426 30.192 117.306 29.264C116.218 28.336 114.266 27.872 111.45 27.872ZM102.954 53.216C102.954 55.168 103.594 56.512 104.874 57.248C106.186 57.984 108.458 58.352 111.69 58.352C114.826 58.352 117.034 57.968 118.314 57.2C119.594 56.464 120.234 55.136 120.234 53.216C120.234 51.776 119.962 50.72 119.418 50.048C118.906 49.376 117.786 48.88 116.058 48.56L106.842 47.024H106.746L105.738 47.648C104.618 48.352 103.866 49.104 103.482 49.904C103.13 50.704 102.954 51.808 102.954 53.216Z" fill="white"/>
<path d="M137.849 26.288C140.985 26.288 143.305 26.864 144.809 28.016C146.345 29.136 147.129 30.832 147.161 33.104C147.193 35.152 146.825 36.72 146.057 37.808C145.289 38.864 143.961 39.392 142.073 39.392H129.737C129.833 41.792 130.185 43.68 130.793 45.056C131.433 46.432 132.377 47.408 133.625 47.984C134.905 48.56 136.521 48.848 138.473 48.848C139.945 48.848 141.385 48.784 142.793 48.656C144.201 48.528 145.401 48.4 146.393 48.272L146.633 49.616C146.057 49.808 145.273 49.968 144.281 50.096C143.289 50.256 142.249 50.368 141.161 50.432C140.073 50.528 139.097 50.576 138.233 50.576C134.489 50.576 131.801 49.648 130.169 47.792C128.537 45.904 127.721 42.752 127.721 38.336C127.721 35.36 128.057 32.992 128.729 31.232C129.433 29.472 130.521 28.208 131.993 27.44C133.497 26.672 135.449 26.288 137.849 26.288ZM137.945 28.016C135.929 28.016 134.329 28.336 133.145 28.976C131.961 29.584 131.097 30.608 130.553 32.048C130.041 33.456 129.769 35.376 129.737 37.808H141.785C143.097 37.808 144.009 37.392 144.521 36.56C145.033 35.728 145.257 34.608 145.193 33.2C145.161 31.376 144.553 30.064 143.369 29.264C142.185 28.432 140.377 28.016 137.945 28.016Z" fill="white"/>
<path d="M155.862 26.864L156.102 30.944C157.958 29.472 159.75 28.336 161.478 27.536C163.238 26.704 164.966 26.288 166.662 26.288H167.622L167.334 28.112H166.374C164.774 28.112 163.19 28.496 161.622 29.264C160.086 30 158.31 31.024 156.294 32.336V50H154.422V26.864H155.862Z" fill="white"/>
<path d="M183.639 26.288C185.783 26.288 187.447 26.8 188.631 27.824C189.847 28.848 190.455 30.576 190.455 33.008V50H189.015L188.679 45.68C188.039 46.352 187.143 47.056 185.991 47.792C184.871 48.496 183.607 49.104 182.199 49.616C180.791 50.096 179.367 50.336 177.927 50.336C175.975 50.336 174.439 49.824 173.319 48.8C172.199 47.744 171.639 46.256 171.639 44.336V41.456C171.639 39.696 172.135 38.336 173.127 37.376C174.151 36.416 175.575 35.936 177.399 35.936H188.535V33.008C188.535 31.536 188.167 30.336 187.431 29.408C186.727 28.48 185.383 28.016 183.399 28.016C181.799 28.016 180.055 28.096 178.167 28.256C176.311 28.384 174.519 28.544 172.791 28.736L172.599 27.296C174.135 27.072 175.799 26.848 177.591 26.624C179.415 26.4 181.431 26.288 183.639 26.288ZM178.119 48.56C179.207 48.592 180.375 48.416 181.623 48.032C182.903 47.648 184.151 47.12 185.367 46.448C186.583 45.744 187.639 44.976 188.535 44.144V37.472L177.591 37.616C174.935 37.68 173.607 39.008 173.607 41.6V44.192C173.607 47.072 175.111 48.528 178.119 48.56Z" fill="white"/>
</g>
<path d="M32.1819 39.9262C29.9403 39.187 28.1536 37.447 27.3508 35.235C27.351 31.6375 27.3512 28.6512 27.3506 25.5307H27.3532C27.3515 25.4926 27.3506 25.4542 27.3506 25.4157C27.3506 24.0815 28.4321 23 29.7662 23C31.1004 23 32.1819 24.0815 32.1819 25.4157C32.1819 25.4542 32.181 25.4926 32.1792 25.5307H32.1819V39.9262Z" fill="url(#paint0_radial)"/>
<path d="M27.3518 34.9044L27.3523 37.8237C27.3511 37.8766 27.3506 37.9298 27.3506 37.983C27.3506 41.8584 30.4922 45 34.3675 45L34.405 44.9999L38.6237 45V44.9973C38.6619 44.9991 38.7002 45 38.7388 45C40.0729 45 41.1545 43.9185 41.1545 42.5843C41.1545 41.2502 40.0729 40.1686 38.7388 40.1686C38.7002 40.1686 38.6619 40.1695 38.6237 40.1713V40.1686H34.8277C31.3819 40.1686 28.449 37.9729 27.3518 34.9044Z" fill="url(#paint1_linear)"/>
<circle cx="33.5681" cy="34.2176" r="23.2517" transform="rotate(47.0677 33.5681 34.2176)" stroke="url(#paint2_linear)"/>
<defs>
<filter id="filter0_d" x="74.7185" y="12.4" width="119.737" height="51.632" filterUnits="userSpaceOnUse" color-interpolation-filters="sRGB">
<feFlood flood-opacity="0" result="BackgroundImageFix"/>
<feColorMatrix in="SourceAlpha" type="matrix" values="0 0 0 0 0 0 0 0 0 0 0 0 0 0 0 0 0 0 127 0"/>
<feOffset/>
<feGaussianBlur stdDeviation="2"/>
<feColorMatrix type="matrix" values="0 0 0 0 0 0 0 0 0 0 0 0 0 0 0 0 0 0 0.48 0"/>
<feBlend mode="normal" in2="BackgroundImageFix" result="effect1_dropShadow"/>
<feBlend mode="normal" in="SourceGraphic" in2="effect1_dropShadow" result="shape"/>
</filter>
<radialGradient id="paint0_radial" cx="0" cy="0" r="1" gradientUnits="userSpaceOnUse" gradientTransform="translate(31 25.5) rotate(129.401) scale(18.1177 49.8472)">
<stop offset="0.462418" stop-color="white"/>
<stop offset="0.860134" stop-color="#2D0077"/>
</radialGradient>
<linearGradient id="paint1_linear" x1="47" y1="46.5" x2="30" y2="46.5" gradientUnits="userSpaceOnUse">
<stop stop-color="#2D0077"/>
<stop offset="0.807033" stop-color="white"/>
</linearGradient>
<linearGradient id="paint2_linear" x1="9.81642" y1="10.4659" x2="52.3607" y2="10.4659" gradientUnits="userSpaceOnUse">
<stop stop-color="white"/>
<stop offset="1" stop-color="white" stop-opacity="0"/>
</linearGradient>
</defs>
</svg>
