<?xml version="1.0" encoding="UTF-8" standalone="no"?>
<svg
   xmlns:dc="http://purl.org/dc/elements/1.1/"
   xmlns:cc="http://creativecommons.org/ns#"
   xmlns:rdf="http://www.w3.org/1999/02/22-rdf-syntax-ns#"
   xmlns:svg="http://www.w3.org/2000/svg"
   xmlns="http://www.w3.org/2000/svg"
   xmlns:sodipodi="http://sodipodi.sourceforge.net/DTD/sodipodi-0.dtd"
   xmlns:inkscape="http://www.inkscape.org/namespaces/inkscape"
   width="170mm"
   height="60mm"
   viewBox="0 0 170 60"
   version="1.1"
   id="svg8"
   inkscape:version="1.0.1 (c497b03c, 2020-09-10)"
   sodipodi:docname="ligera-logo-x.svg">
  <defs
     id="defs2" />
  <sodipodi:namedview
     id="base"
     pagecolor="#ffffff"
     bordercolor="#666666"
     borderopacity="1.0"
     inkscape:pageopacity="0.0"
     inkscape:pageshadow="2"
     inkscape:zoom="2.896134"
     inkscape:cx="117.0921"
     inkscape:cy="202.69476"
     inkscape:document-units="mm"
     inkscape:current-layer="layer1"
     inkscape:document-rotation="0"
     showgrid="false"
     inkscape:snap-global="false"
     inkscape:window-width="2560"
     inkscape:window-height="1394"
     inkscape:window-x="1440"
     inkscape:window-y="23"
     inkscape:window-maximized="0" />
  <metadata
     id="metadata5">
    <rdf:RDF>
      <cc:Work
         rdf:about="">
        <dc:format>image/svg+xml</dc:format>
        <dc:type
           rdf:resource="http://purl.org/dc/dcmitype/StillImage" />
        <dc:title />
      </cc:Work>
    </rdf:RDF>
  </metadata>
  <g
     inkscape:label="Layer 1"
     inkscape:groupmode="layer"
     id="layer1">
    <g
       aria-label="ligera"
       id="text835"
       style="font-size:56.15619999999999834px;line-height:1.25;font-family:Oswald;-inkscape-font-specification:Oswald;fill:#5a2ca0;stroke-width:1.40391">
      <path
         d="m 55.258717,8.8412667 h 8.479587 V 50.789949 h -8.479587 z"
         style="font-style:normal;font-variant:normal;font-weight:bold;font-stretch:normal;font-family:Khand;-inkscape-font-specification:'Khand Bold';fill:#5a2ca0;stroke-width:1.40391"
         id="path882" />
      <path
         d="m 72.961082,16.703135 q -4.660964,0 -4.660964,-4.380183 0,-4.4363402 4.660964,-4.4363402 4.717121,0 4.717121,4.4363402 0,4.380183 -4.717121,4.380183 z m -4.211715,1.853155 h 8.479587 v 32.233659 h -8.479587 z"
         style="font-style:normal;font-variant:normal;font-weight:bold;font-stretch:normal;font-family:Khand;-inkscape-font-specification:'Khand Bold';fill:#5a2ca0;stroke-width:1.40391"
         id="path884" />
      <path
         d="m 105.03944,21.307944 h -1.96547 q -0.44925,0 -1.23544,0.112312 1.06697,1.796999 1.06697,4.492496 v 4.829433 q 0,4.155559 -2.58318,6.457963 -2.583192,2.302405 -7.805722,2.414717 -1.46006,0 -1.46006,1.235436 0,0.730031 0.44925,1.010812 0.50541,0.224625 1.797,0.224625 h 3.08859 q 4.324032,0 6.401812,1.740842 2.13393,1.684686 2.13393,5.334839 v 1.403905 q 0,4.099403 -2.97627,6.345651 -2.976282,2.302404 -8.872682,2.302404 h -2.07778 q -3.594,0 -6.34565,-0.786187 -2.75166,-0.73003 -4.09941,-1.684686 v -7.693399 q 1.57238,1.235436 4.38019,2.133935 2.80781,0.954656 5.84024,0.954656 h 1.17928 q 2.92012,0 3.98709,-0.44925 1.12313,-0.393093 1.12313,-1.347749 v -0.280781 q 0,-1.123124 -1.90931,-1.123124 h -3.42553 q -4.04325,0 -6.06487,-1.17928 -2.02163,-1.17928 -2.02163,-3.818621 v -0.8985 q 0,-3.53784 3.14475,-4.099402 -5.78409,-1.909311 -5.78409,-8.198806 v -4.829433 q 0,-4.211715 2.6955,-6.514119 2.75165,-2.302404 8.25496,-2.302404 3.65016,0 6.12103,1.010811 1.29159,-4.324027 6.064872,-4.324027 h 0.8985 z m -10.557372,9.378085 v -4.717121 q 0,-2.190091 -2.52703,-2.190091 -2.52703,0 -2.52703,2.190091 v 4.717121 q 0,2.190092 2.52703,2.190092 2.52703,0 2.52703,-2.190092 z"
         style="font-style:normal;font-variant:normal;font-weight:bold;font-stretch:normal;font-family:Khand;-inkscape-font-specification:'Khand Bold';fill:#5a2ca0;stroke-width:1.40391"
         id="path886" />
      <path
         d="m 107.23392,41.355707 v -15.21833 q 0,-4.267871 2.63934,-6.626432 2.63934,-2.414716 7.97418,-2.414716 10.27658,0 10.27658,9.041148 v 11.399709 h -12.74746 v 3.144747 q 0,1.684686 0.8985,2.414717 0.95466,0.673874 4.09941,0.673874 3.2009,0 6.96337,-1.123124 v 7.412618 q -3.93094,1.066968 -8.42343,1.066968 -11.68049,0 -11.68049,-9.771179 z m 8.14264,-10.276584 h 4.94175 v -4.829434 q 0,-2.133935 -2.47087,-2.133935 -2.47088,0 -2.47088,2.133935 z"
         style="font-style:normal;font-variant:normal;font-weight:bold;font-stretch:normal;font-family:Khand;-inkscape-font-specification:'Khand Bold';fill:#5a2ca0;stroke-width:1.40391"
         id="path888" />
      <path
         d="m 146.3546,17.489322 h 0.95466 v 7.805712 h -1.29159 q -3.14475,0 -5.50331,1.123124 v 24.371791 h -8.47959 V 17.657791 h 7.97418 v 2.246248 q 2.86397,-1.740842 3.98709,-2.07778 1.17928,-0.336937 2.35856,-0.336937 z"
         style="font-style:normal;font-variant:normal;font-weight:bold;font-stretch:normal;font-family:Khand;-inkscape-font-specification:'Khand Bold';fill:#5a2ca0;stroke-width:1.40391"
         id="path890" />
      <path
         d="m 156.98304,41.187239 v 1.572373 q 0,1.909311 1.96547,1.909311 1.68469,0 2.80781,-0.617718 v -6.7949 l -2.58318,0.673874 q -1.40391,0.393093 -1.797,1.010812 -0.3931,0.617718 -0.3931,2.246248 z m -6.57027,-22.743261 q 3.08859,-1.066968 8.81652,-1.066968 5.72793,0 8.19881,2.527029 2.47087,2.470873 2.47087,7.524931 v 23.360979 h -7.91802 v -2.414717 q -1.62853,2.527029 -5.67178,2.527029 -4.04325,0 -5.84025,-1.90931 -1.79699,-1.965467 -1.79699,-6.233339 v -1.909311 q 0,-3.762465 1.62853,-5.784088 1.68468,-2.021623 5.39099,-3.032435 l 6.12103,-1.572374 v -3.088591 q -0.0562,-1.460061 -0.84235,-2.021623 -0.78618,-0.617718 -2.86396,-0.617718 -4.66097,0 -7.6934,1.17928 z"
         style="font-style:normal;font-variant:normal;font-weight:bold;font-stretch:normal;font-family:Khand;-inkscape-font-specification:'Khand Bold';fill:#5a2ca0;stroke-width:1.40391"
         id="path892" />
    </g>
    <path
       style="color:#000000;font-style:normal;font-variant:normal;font-weight:normal;font-stretch:normal;font-size:medium;line-height:normal;font-family:sans-serif;font-variant-ligatures:normal;font-variant-position:normal;font-variant-caps:normal;font-variant-numeric:normal;font-variant-alternates:normal;font-variant-east-asian:normal;font-feature-settings:normal;font-variation-settings:normal;text-indent:0;text-align:start;text-decoration:none;text-decoration-line:none;text-decoration-style:solid;text-decoration-color:#000000;letter-spacing:normal;word-spacing:normal;text-transform:none;writing-mode:lr-tb;direction:ltr;text-orientation:mixed;dominant-baseline:auto;baseline-shift:baseline;text-anchor:start;white-space:normal;shape-padding:0;shape-margin:0;inline-size:0;clip-rule:nonzero;display:inline;overflow:visible;visibility:visible;opacity:1;isolation:auto;mix-blend-mode:normal;color-interpolation:sRGB;color-interpolation-filters:linearRGB;solid-color:#000000;solid-opacity:1;vector-effect:none;fill:#5a2ca0;fill-opacity:1;fill-rule:nonzero;stroke:none;stroke-width:4.41277;stroke-linecap:butt;stroke-linejoin:round;stroke-miterlimit:4;stroke-dasharray:none;stroke-dashoffset:0;stroke-opacity:1;color-rendering:auto;image-rendering:auto;shape-rendering:auto;text-rendering:auto;enable-background:accumulate;stop-color:#000000;stop-opacity:1"
       d="m 37.212107,37.154462 v 6.642488 c 0,1.371468 -1.034582,2.408637 -2.406052,2.408637 H 16.655742 v 4.412134 h 18.150313 c 3.739814,0 6.818188,-3.080957 6.818188,-6.820771 v -6.642488 z"
       id="path880"
       sodipodi:nodetypes="cssccsscc" />
    <path
       style="color:#000000;font-style:normal;font-variant:normal;font-weight:normal;font-stretch:normal;font-size:medium;line-height:normal;font-family:sans-serif;font-variant-ligatures:normal;font-variant-position:normal;font-variant-caps:normal;font-variant-numeric:normal;font-variant-alternates:normal;font-variant-east-asian:normal;font-feature-settings:normal;font-variation-settings:normal;text-indent:0;text-align:start;text-decoration:none;text-decoration-line:none;text-decoration-style:solid;text-decoration-color:#000000;letter-spacing:normal;word-spacing:normal;text-transform:none;writing-mode:lr-tb;direction:ltr;text-orientation:mixed;dominant-baseline:auto;baseline-shift:baseline;text-anchor:start;white-space:normal;shape-padding:0;shape-margin:0;inline-size:0;clip-rule:nonzero;display:inline;overflow:visible;visibility:visible;opacity:1;isolation:auto;mix-blend-mode:normal;color-interpolation:sRGB;color-interpolation-filters:linearRGB;solid-color:#000000;solid-opacity:1;vector-effect:none;fill:#5a2ca0;fill-opacity:1;fill-rule:nonzero;stroke:none;stroke-width:4.41277;stroke-linecap:butt;stroke-linejoin:round;stroke-miterlimit:4;stroke-dasharray:none;stroke-dashoffset:0;stroke-opacity:1;color-rendering:auto;image-rendering:auto;shape-rendering:auto;text-rendering:auto;enable-background:accumulate;stop-color:#000000;stop-opacity:1"
       d="M 0.03660043,24.983629 V 43.79695 c 0,3.739814 3.07837227,6.820771 6.81818907,6.820771 H 13.362918 V 46.205587 H 6.8547895 c -1.3714708,0 -2.4065721,-1.037169 -2.4065721,-2.408637 V 24.983629 Z"
       id="path878"
       sodipodi:nodetypes="cssccsscc" />
    <path
       style="color:#000000;font-style:normal;font-variant:normal;font-weight:normal;font-stretch:normal;font-size:medium;line-height:normal;font-family:sans-serif;font-variant-ligatures:normal;font-variant-position:normal;font-variant-caps:normal;font-variant-numeric:normal;font-variant-alternates:normal;font-variant-east-asian:normal;font-feature-settings:normal;font-variation-settings:normal;text-indent:0;text-align:start;text-decoration:none;text-decoration-line:none;text-decoration-style:solid;text-decoration-color:#000000;letter-spacing:normal;word-spacing:normal;text-transform:none;writing-mode:lr-tb;direction:ltr;text-orientation:mixed;dominant-baseline:auto;baseline-shift:baseline;text-anchor:start;white-space:normal;shape-padding:0;shape-margin:0;inline-size:0;clip-rule:nonzero;display:inline;overflow:visible;visibility:visible;opacity:1;isolation:auto;mix-blend-mode:normal;color-interpolation:sRGB;color-interpolation-filters:linearRGB;solid-color:#000000;solid-opacity:1;vector-effect:none;fill:#5a2ca0;fill-opacity:1;fill-rule:nonzero;stroke:none;stroke-width:4.41277;stroke-linecap:butt;stroke-linejoin:round;stroke-miterlimit:4;stroke-dasharray:none;stroke-dashoffset:0;stroke-opacity:1;color-rendering:auto;image-rendering:auto;shape-rendering:auto;text-rendering:auto;enable-background:accumulate;stop-color:#000000;stop-opacity:1"
       d="m 28.297409,9.0274969 v 4.4142001 h 6.508646 c 1.37147,0 2.406055,1.034584 2.406052,2.406054 v 18.013886 h 4.412136 V 15.847751 c 0,-3.739816 -3.078374,-6.8202541 -6.818188,-6.8202541 z"
       id="path876"
       sodipodi:nodetypes="ccscccssc" />
    <path
       style="color:#000000;font-style:normal;font-variant:normal;font-weight:normal;font-stretch:normal;font-size:medium;line-height:normal;font-family:sans-serif;font-variant-ligatures:normal;font-variant-position:normal;font-variant-caps:normal;font-variant-numeric:normal;font-variant-alternates:normal;font-variant-east-asian:normal;font-feature-settings:normal;font-variation-settings:normal;text-indent:0;text-align:start;text-decoration:none;text-decoration-line:none;text-decoration-style:solid;text-decoration-color:#000000;letter-spacing:normal;word-spacing:normal;text-transform:none;writing-mode:lr-tb;direction:ltr;text-orientation:mixed;dominant-baseline:auto;baseline-shift:baseline;text-anchor:start;white-space:normal;shape-padding:0;shape-margin:0;inline-size:0;clip-rule:nonzero;display:inline;overflow:visible;visibility:visible;opacity:1;isolation:auto;mix-blend-mode:normal;color-interpolation:sRGB;color-interpolation-filters:linearRGB;solid-color:#000000;solid-opacity:1;vector-effect:none;fill:#5a2ca0;fill-opacity:1;fill-rule:nonzero;stroke:none;stroke-width:4.41277;stroke-linecap:butt;stroke-linejoin:round;stroke-miterlimit:4;stroke-dasharray:none;stroke-dashoffset:0;stroke-opacity:1;color-rendering:auto;image-rendering:auto;shape-rendering:auto;text-rendering:auto;enable-background:accumulate;stop-color:#000000;stop-opacity:1"
       d="m 6.8547895,9.0274969 c -3.7398168,0 -6.81818828,3.0804381 -6.81818907,6.8202541 v 5.843053 H 4.4482174 v -5.843053 c 0,-1.37147 1.0351013,-2.406054 2.4065721,-2.406054 H 25.004585 V 9.0274969 Z"
       id="path858"
       sodipodi:nodetypes="ssccssccs" />
    <rect
       style="fill:#5a2ca0;stroke-width:4.10614;stroke-linejoin:round"
       id="rect849"
       width="30.153406"
       height="30.220976"
       x="5.7814045"
       y="14.72381"
       ry="1.4866469" />
    <path
       style="color:#000000;font-style:normal;font-variant:normal;font-weight:normal;font-stretch:normal;font-size:medium;line-height:normal;font-family:sans-serif;font-variant-ligatures:normal;font-variant-position:normal;font-variant-caps:normal;font-variant-numeric:normal;font-variant-alternates:normal;font-variant-east-asian:normal;font-feature-settings:normal;font-variation-settings:normal;text-indent:0;text-align:start;text-decoration:none;text-decoration-line:none;text-decoration-style:solid;text-decoration-color:#000000;letter-spacing:normal;word-spacing:normal;text-transform:none;writing-mode:lr-tb;direction:ltr;text-orientation:mixed;dominant-baseline:auto;baseline-shift:baseline;text-anchor:start;white-space:normal;shape-padding:0;shape-margin:0;inline-size:0;clip-rule:nonzero;display:inline;overflow:visible;visibility:visible;opacity:1;isolation:auto;mix-blend-mode:normal;color-interpolation:sRGB;color-interpolation-filters:linearRGB;solid-color:#000000;solid-opacity:1;vector-effect:none;fill:#ffffff;fill-opacity:1;fill-rule:nonzero;stroke:none;stroke-width:3.31882;stroke-linecap:butt;stroke-linejoin:round;stroke-miterlimit:4;stroke-dasharray:none;stroke-dashoffset:0;stroke-opacity:1;color-rendering:auto;image-rendering:auto;shape-rendering:auto;text-rendering:auto;enable-background:accumulate;stop-color:#000000;stop-opacity:1"
       d="m 16.720082,19.862957 v 14.149406 c 0,2.812696 2.315228,5.129869 5.127926,5.129869 h 4.894732 v -3.318345 h -4.894732 c -1.031476,0 -1.809971,-0.780049 -1.809971,-1.811524 V 19.862957 Z"
       id="path919"
       sodipodi:nodetypes="cssccsscc" />
  </g>
</svg>
