<?xml version="1.0" encoding="UTF-8" standalone="no"?>
<svg
   xmlns:dc="http://purl.org/dc/elements/1.1/"
   xmlns:cc="http://creativecommons.org/ns#"
   xmlns:rdf="http://www.w3.org/1999/02/22-rdf-syntax-ns#"
   xmlns:svg="http://www.w3.org/2000/svg"
   xmlns="http://www.w3.org/2000/svg"
   xmlns:sodipodi="http://sodipodi.sourceforge.net/DTD/sodipodi-0.dtd"
   xmlns:inkscape="http://www.inkscape.org/namespaces/inkscape"
   width="170mm"
   height="60mm"
   viewBox="0 0 170 60"
   version="1.1"
   id="svg8"
   inkscape:version="1.0.1 (c497b03c, 2020-09-10)"
   sodipodi:docname="ligera-logo-1-white.svg">
  <defs
     id="defs2" />
  <sodipodi:namedview
     id="base"
     pagecolor="#ffffff"
     bordercolor="#666666"
     borderopacity="1.0"
     inkscape:pageopacity="0.0"
     inkscape:pageshadow="2"
     inkscape:zoom="1.7459522"
     inkscape:cx="310.67108"
     inkscape:cy="199.18551"
     inkscape:document-units="mm"
     inkscape:current-layer="text835"
     inkscape:document-rotation="0"
     showgrid="false"
     inkscape:snap-global="false"
     inkscape:window-width="2560"
     inkscape:window-height="1395"
     inkscape:window-x="1440"
     inkscape:window-y="23"
     inkscape:window-maximized="0" />
  <metadata
     id="metadata5">
    <rdf:RDF>
      <cc:Work
         rdf:about="">
        <dc:format>image/svg+xml</dc:format>
        <dc:type
           rdf:resource="http://purl.org/dc/dcmitype/StillImage" />
        <dc:title></dc:title>
      </cc:Work>
    </rdf:RDF>
  </metadata>
  <g
     inkscape:label="Layer 1"
     inkscape:groupmode="layer"
     id="layer1">
    <g
       aria-label="ligera"
       id="text835"
       style="font-size:56.1562px;line-height:1.25;font-family:Oswald;-inkscape-font-specification:Oswald;fill:#000000;stroke-width:1.40391">
      <path
         id="path1507"
         style="fill:#ffffff;stroke-width:9.21377;stroke-linejoin:round"
         inkscape:transform-center-x="0.0036974939"
         inkscape:transform-center-y="-2.3874139"
         d="m 28.614095,6.0767786 -1.244886,2.525943 6.408912,13.9273144 c 0.573315,1.24586 1.947199,1.755678 3.193084,1.182357 l 4.273643,-1.966288 -5.265312,-0.762743 z m -4.981094,10.1053244 -2.370396,4.808492 -16.4527417,2.398821 2.141988,2.08566 15.1396427,-1.781286 c 1.362072,-0.160229 2.271244,-1.309094 2.110983,-2.671154 z m 4.974376,5.664771 c -0.260191,3.162848 -2.738736,5.844834 -6.000152,6.228562 l -2.005563,0.236162 c 2.532298,1.398984 4.006567,4.342114 3.413228,7.314282 l -0.437181,2.18953 c 2.106308,-2.099892 5.456121,-2.655816 8.164877,-1.136364 l 2.094445,1.174604 c -1.275057,-2.633797 -0.75052,-5.925947 1.499134,-8.002614 l 1.734259,-1.600935 C 34.123979,28.724086 31.072799,27.204184 29.770612,24.37437 Z M 49.348745,22.919678 38.32823,33.092182 c -1.007753,0.930251 -1.067716,2.394638 -0.137459,3.402378 l 3.200839,3.467489 -0.857314,-4.984192 11.900568,-11.611179 z m -36.857697,7.949385 4.230748,4.120163 -2.802929,16.389181 2.7404,-1.442292 3.029792,-15.174267 c 0.268504,-1.344919 -0.543849,-2.564421 -1.888776,-2.832901 z m 15.938561,9.332764 c -0.850551,-0.02093 -1.661592,0.423064 -2.122869,1.245402 l -2.715596,4.840015 5.041038,-2.65307 14.720549,7.730278 L 42.76,47.916601 29.584578,40.526354 c -0.373792,-0.209677 -0.768355,-0.315015 -1.154969,-0.324527 z" />
      <rect
         style="fill:#ffffff;stroke-width:4.5238;stroke-linejoin:round"
         id="rect2228"
         width="5.7585578"
         height="5.7585578"
         x="25.913509"
         y="28.186626"
         ry="1.6453022" />
      <circle
         style="fill:#ffffff;stroke-width:4.99999;stroke-linejoin:round"
         id="path2232"
         cx="37.279087"
         cy="28.186628"
         r="1.5154099" />
      <circle
         style="fill:#ffffff;stroke-width:4.99999;stroke-linejoin:round"
         id="circle2234"
         cx="33.945187"
         cy="37.885254"
         r="1.5154099" />
      <circle
         style="fill:#ffffff;stroke-width:4.99999;stroke-linejoin:round"
         id="circle2236"
         cx="23.640398"
         cy="37.885254"
         r="1.5154099" />
      <circle
         style="fill:#ffffff;stroke-width:4.99999;stroke-linejoin:round"
         id="circle2240"
         cx="28.792791"
         cy="22.12499"
         r="1.5154099" />
      <circle
         style="fill:#ffffff;stroke-width:4.99999;stroke-linejoin:round"
         id="circle2242"
         cx="20.609577"
         cy="28.186628"
         r="1.5154099" />
      <path
         d="m 66.992787,10.302687 h 2.54 v 36.2204 h -2.54 z"
         style="font-style:normal;font-variant:normal;font-weight:300;font-stretch:normal;font-size:50.8px;line-height:1.25;font-family:Khand;-inkscape-font-specification:'Khand, Light';font-variant-ligatures:normal;font-variant-caps:normal;font-variant-numeric:normal;font-variant-east-asian:normal;fill:#ffffff;stroke-width:0.371451"
         id="path2290" />
      <path
         d="m 78.3831,14.011087 q -1.6764,0 -1.6764,-1.8796 0,-1.8796 1.6764,-1.8796 1.6764,0 1.6764,1.8796 0,1.8796 -1.6764,1.8796 z m -1.27,3.9116 h 2.54 v 28.6004 h -2.54 z"
         style="font-style:normal;font-variant:normal;font-weight:300;font-stretch:normal;font-size:50.8px;line-height:1.25;font-family:Khand;-inkscape-font-specification:'Khand, Light';font-variant-ligatures:normal;font-variant-caps:normal;font-variant-numeric:normal;font-variant-east-asian:normal;fill:#ffffff;stroke-width:0.371451"
         id="path2292" />
      <path
         d="m 104.70864,18.684687 h -1.67641 q -1.52401,0 -2.59082,0.9652 1.72721,1.8796 1.72721,5.0292 v 3.9624 q 0,3.4036 -2.03201,5.334 -2.031997,1.9304 -6.095997,1.9304 -3.302,0 -3.302,3.0988 0,1.3716 0.8128,2.032 0.8636,0.6096 2.8448,0.6096 h 2.9972 q 6.807217,0 6.807217,5.7912 v 0.508 q 0,6.146799 -8.839217,6.146799 h -2.0828 q -4.826,0 -7.5692,-1.4224 v -2.54 q 3.0988,1.6764 7.5692,1.6764 h 2.032 q 6.350007,0 6.350007,-3.809999 v -0.5588 q 0,-1.778 -0.8636,-2.6416 -0.812807,-0.8636 -3.352807,-0.8636 h -3.048 q -2.8448,0 -4.4196,-1.1176 -1.5748,-1.1176 -1.5748,-3.2004 v -0.8128 q 0,-1.27 0.7112,-2.0828 0.7112,-0.8636 1.8288,-1.1684 -5.0292,-1.3208 -5.0292,-6.9088 v -3.9624 q 0,-3.4036 2.032,-5.334 2.032,-1.9304 5.7404,-1.9304 3.7592,0 5.8928,1.4732 0.914397,-2.794 4.368817,-2.794 h 0.76201 z m -5.080027,9.9568 v -3.9624 q 0,-2.4892 -1.3208,-3.7084 -1.3208,-1.27 -4.2672,-1.27 -2.9464,0 -4.2672,1.27 -1.3208,1.2192 -1.3208,3.7084 v 3.9624 q 0,2.4892 1.3208,3.7592 1.3208,1.2192 4.2672,1.2192 2.9464,0 4.2672,-1.2192 1.3208,-1.27 1.3208,-3.7592 z"
         style="font-style:normal;font-variant:normal;font-weight:300;font-stretch:normal;font-size:50.8px;line-height:1.25;font-family:Khand;-inkscape-font-specification:'Khand, Light';font-variant-ligatures:normal;font-variant-caps:normal;font-variant-numeric:normal;font-variant-east-asian:normal;fill:#ffffff;stroke-width:0.371451"
         id="path2294" />
      <path
         d="m 109.24809,39.461887 v -14.224 q 0,-3.5052 1.9304,-5.6388 1.9812,-2.1844 5.9944,-2.1844 4.0132,0 5.9436,2.1844 1.9812,2.1336 1.9812,5.6388 v 8.4836 h -13.3096 v 5.7404 q 0,4.9276 6.7564,4.9276 2.7432,0 5.6388,-0.8636 v 2.4892 q -2.5908,0.762 -5.6388,0.762 -9.2964,0 -9.2964,-7.3152 z m 2.54,-8.0264 h 10.7696 v -6.1976 q 0,-5.5372 -5.3848,-5.5372 -5.3848,0 -5.3848,5.5372 z"
         style="font-style:normal;font-variant:normal;font-weight:300;font-stretch:normal;font-size:50.8px;line-height:1.25;font-family:Khand;-inkscape-font-specification:'Khand, Light';font-variant-ligatures:normal;font-variant-caps:normal;font-variant-numeric:normal;font-variant-east-asian:normal;fill:#ffffff;stroke-width:0.371451"
         id="path2296" />
      <path
         d="m 140.36309,17.770287 h 1.3716 v 2.4892 h -1.8288 q -1.524,0 -2.286,0.508 -0.762,0.4572 -1.016,0.6096 -0.254,0.1524 -0.9652,0.7112 -0.7112,0.5588 -1.1176,0.8128 v 23.622 h -2.54 v -28.6004 h 2.4892 v 2.2352 q 0.8128,-0.5588 1.2192,-0.8636 0.4064,-0.3556 0.8636,-0.6096 0.508,-0.3048 0.8128,-0.4064 0.3048,-0.1016 0.8128,-0.254 0.8636,-0.254 2.1844,-0.254 z"
         style="font-style:normal;font-variant:normal;font-weight:300;font-stretch:normal;font-size:50.8px;line-height:1.25;font-family:Khand;-inkscape-font-specification:'Khand, Light';font-variant-ligatures:normal;font-variant-caps:normal;font-variant-numeric:normal;font-variant-east-asian:normal;fill:#ffffff;stroke-width:0.371451"
         id="path2298" />
      <path
         d="m 146.2297,38.395087 v 1.5748 q 0,2.3368 1.0668,3.4544 1.1176,1.0668 3.7084,1.0668 3.7084,0 6.35,-2.3368 v -10.3632 l -6.7056,1.8796 q -2.4892,0.762 -3.4544,1.8288 -0.9652,1.0668 -0.9652,2.8956 z m 5.2832,-20.7264 q 8.3312,0 8.3312,6.9088 v 21.9456 h -2.4892 v -2.032 q -0.9652,0.762 -1.6764,1.1684 -1.778,1.0668 -4.826,1.0668 -7.112,0 -7.112,-6.8072 v -1.6256 q 0,-5.0292 6.096,-6.7564 l 7.5184,-2.1336 v -4.826 q 0,-2.286 -1.27,-3.3528 -1.2192,-1.1176 -4.7244,-1.1176 -3.4544,0 -6.2992,1.016 v -2.54 q 2.8448,-0.9144 6.4516,-0.9144 z"
         style="font-style:normal;font-variant:normal;font-weight:300;font-stretch:normal;font-size:50.8px;line-height:1.25;font-family:Khand;-inkscape-font-specification:'Khand, Light';font-variant-ligatures:normal;font-variant-caps:normal;font-variant-numeric:normal;font-variant-east-asian:normal;fill:#ffffff;stroke-width:0.371451"
         id="path2300" />
      <circle
         style="fill:#ffffff;stroke-width:8.49998;stroke-linejoin:round"
         id="circle2244"
         cx="42.583027"
         cy="49.402367"
         r="2.5761969" />
      <circle
         style="fill:#ffffff;stroke-width:8.49998;stroke-linejoin:round"
         id="circle2246"
         cx="14.851024"
         cy="49.553909"
         r="2.5761969" />
      <circle
         style="fill:#ffffff;stroke-width:8.49998;stroke-linejoin:round"
         id="circle2248"
         cx="5.9101048"
         cy="24.095022"
         r="2.5761969" />
      <circle
         style="fill:#ffffff;stroke-width:8.49998;stroke-linejoin:round"
         id="circle2250"
         cx="27.883549"
         cy="7.7285943"
         r="2.5761969" />
      <circle
         style="fill:#ffffff;stroke-width:8.49998;stroke-linejoin:round"
         id="circle2252"
         cx="50.766239"
         cy="23.337317"
         r="2.5761969" />
    </g>
  </g>
</svg>
